<?xml version="1.0" encoding="UTF-8" standalone="no"?>
<!DOCTYPE svg PUBLIC "-//W3C//DTD SVG 1.1//EN"
 "http://www.w3.org/Graphics/SVG/1.1/DTD/svg11.dtd">
<!-- Generated by graphviz version 14.1.2 (20260124.0452)
 -->
<!-- Title: OJS Pages: 1 -->
<svg width="630pt" height="487pt"
 viewBox="0.00 0.00 630.00 487.00" xmlns="http://www.w3.org/2000/svg" xmlns:xlink="http://www.w3.org/1999/xlink">
<g id="graph0" class="graph" transform="scale(1 1) rotate(0) translate(4 482.5)">
<title>OJS</title>
<polygon fill="white" stroke="none" points="-4,4 -4,-482.5 626.25,-482.5 626.25,4 -4,4"/>
<!-- Resource -->
<g id="node1" class="node">
<title>Resource</title>
<ellipse fill="#00868b" stroke="#00868b" cx="222.56" cy="-372" rx="45.21" ry="18"/>
<text xml:space="preserve" text-anchor="middle" x="222.56" y="-366.95" font-family="Times New Roman,serif" font-size="14.00">Resource</text>
</g>
<!-- Language -->
<g id="node2" class="node">
<title>Language</title>
<ellipse fill="#00868b" stroke="#00868b" cx="317.56" cy="-18" rx="47.26" ry="18"/>
<text xml:space="preserve" text-anchor="middle" x="317.56" y="-12.95" font-family="Times New Roman,serif" font-size="14.00">Language</text>
</g>
<!-- Library -->
<g id="node3" class="node">
<title>Library</title>
<ellipse fill="#00868b" stroke="#00868b" cx="38.56" cy="-18" rx="38.56" ry="18"/>
<text xml:space="preserve" text-anchor="middle" x="38.56" y="-12.95" font-family="Times New Roman,serif" font-size="14.00">Library</text>
</g>
<!-- WebPageStyling -->
<g id="node4" class="node">
<title>WebPageStyling</title>
<ellipse fill="#00868b" stroke="#00868b" cx="167.56" cy="-18" rx="72.34" ry="18"/>
<text xml:space="preserve" text-anchor="middle" x="167.56" y="-12.95" font-family="Times New Roman,serif" font-size="14.00">WebPageStyling</text>
</g>
<!-- TBD -->
<g id="node5" class="node">
<title>TBD</title>
<ellipse fill="#00868b" stroke="#00868b" cx="453.56" cy="-18" rx="29.34" ry="18"/>
<text xml:space="preserve" text-anchor="middle" x="453.56" y="-12.95" font-family="Times New Roman,serif" font-size="14.00">TBD</text>
</g>
<!-- OJS -->
<g id="node6" class="node">
<title>OJS</title>
<polygon fill="goldenrod" stroke="goldenrod" points="339.56,-390 285.56,-390 285.56,-354 339.56,-354 339.56,-390"/>
<text xml:space="preserve" text-anchor="middle" x="312.56" y="-366.95" font-family="Times New Roman,serif" font-size="14.00">OJS</text>
</g>
<!-- OJSDevelopment -->
<g id="node7" class="node">
<title>OJSDevelopment</title>
<polygon fill="goldenrod" stroke="goldenrod" points="368.56,-301.5 256.56,-301.5 256.56,-265.5 368.56,-265.5 368.56,-301.5"/>
<text xml:space="preserve" text-anchor="middle" x="312.56" y="-278.45" font-family="Times New Roman,serif" font-size="14.00">OJSDevelopment</text>
</g>
<!-- OJS&#45;&gt;OJSDevelopment -->
<g id="edge13" class="edge">
<title>OJS&#45;&gt;OJSDevelopment</title>
<path fill="none" stroke="black" d="M312.56,-353.91C312.56,-342.26 312.56,-326.55 312.56,-313.02"/>
<polygon fill="black" stroke="black" points="316.06,-313.36 312.56,-303.36 309.06,-313.36 316.06,-313.36"/>
<text xml:space="preserve" text-anchor="middle" x="334.31" y="-322.7" font-family="Times New Roman,serif" font-size="14.00">requires</text>
</g>
<!-- OJSCocktail -->
<g id="node8" class="node">
<title>OJSCocktail</title>
<polygon fill="goldenrod" stroke="goldenrod" points="354.68,-213 270.43,-213 270.43,-177 354.68,-177 354.68,-213"/>
<text xml:space="preserve" text-anchor="middle" x="312.56" y="-189.95" font-family="Times New Roman,serif" font-size="14.00">OJSCocktail</text>
</g>
<!-- OJSDevelopment&#45;&gt;OJSCocktail -->
<g id="edge14" class="edge">
<title>OJSDevelopment&#45;&gt;OJSCocktail</title>
<path fill="none" stroke="black" d="M312.56,-265.41C312.56,-253.76 312.56,-238.05 312.56,-224.52"/>
<polygon fill="black" stroke="black" points="316.06,-224.86 312.56,-214.86 309.06,-224.86 316.06,-224.86"/>
<text xml:space="preserve" text-anchor="middle" x="324.18" y="-234.2" font-family="Times New Roman,serif" font-size="14.00">uses</text>
</g>
<!-- Bootstrap -->
<g id="node9" class="node">
<title>Bootstrap</title>
<polygon fill="goldenrod" stroke="goldenrod" points="115.81,-124.5 47.31,-124.5 47.31,-88.5 115.81,-88.5 115.81,-124.5"/>
<text xml:space="preserve" text-anchor="middle" x="81.56" y="-101.45" font-family="Times New Roman,serif" font-size="14.00">Bootstrap</text>
</g>
<!-- OJSCocktail&#45;&gt;Bootstrap -->
<g id="edge15" class="edge">
<title>OJSCocktail&#45;&gt;Bootstrap</title>
<path fill="none" stroke="black" d="M269.97,-190.4C219.8,-185.49 140.13,-175.37 115.31,-159 106.23,-153.01 99.04,-143.65 93.67,-134.55"/>
<polygon fill="black" stroke="black" points="96.86,-133.09 89.08,-125.9 90.67,-136.37 96.86,-133.09"/>
<text xml:space="preserve" text-anchor="middle" x="159.93" y="-145.7" font-family="Times New Roman,serif" font-size="14.00">is_composed_of</text>
</g>
<!-- CSS -->
<g id="node10" class="node">
<title>CSS</title>
<polygon fill="goldenrod" stroke="goldenrod" points="227.56,-124.5 173.56,-124.5 173.56,-88.5 227.56,-88.5 227.56,-124.5"/>
<text xml:space="preserve" text-anchor="middle" x="200.56" y="-101.45" font-family="Times New Roman,serif" font-size="14.00">CSS</text>
</g>
<!-- OJSCocktail&#45;&gt;CSS -->
<g id="edge16" class="edge">
<title>OJSCocktail&#45;&gt;CSS</title>
<path fill="none" stroke="black" d="M270.17,-186.3C252.48,-181.18 232.93,-172.76 219.31,-159 213.05,-152.68 208.86,-144.1 206.06,-135.77"/>
<polygon fill="black" stroke="black" points="209.47,-134.96 203.45,-126.24 202.72,-136.81 209.47,-134.96"/>
<text xml:space="preserve" text-anchor="middle" x="263.93" y="-145.7" font-family="Times New Roman,serif" font-size="14.00">is_composed_of</text>
</g>
<!-- HTML -->
<g id="node11" class="node">
<title>HTML</title>
<polygon fill="goldenrod" stroke="goldenrod" points="340.06,-124.5 285.06,-124.5 285.06,-88.5 340.06,-88.5 340.06,-124.5"/>
<text xml:space="preserve" text-anchor="middle" x="312.56" y="-101.45" font-family="Times New Roman,serif" font-size="14.00">HTML</text>
</g>
<!-- OJSCocktail&#45;&gt;HTML -->
<g id="edge17" class="edge">
<title>OJSCocktail&#45;&gt;HTML</title>
<path fill="none" stroke="black" d="M312.56,-176.91C312.56,-165.26 312.56,-149.55 312.56,-136.02"/>
<polygon fill="black" stroke="black" points="316.06,-136.36 312.56,-126.36 309.06,-136.36 316.06,-136.36"/>
<text xml:space="preserve" text-anchor="middle" x="357.18" y="-145.7" font-family="Times New Roman,serif" font-size="14.00">is_composed_of</text>
</g>
<!-- PHP -->
<g id="node13" class="node">
<title>PHP</title>
<polygon fill="goldenrod" stroke="goldenrod" points="451.56,-124.5 397.56,-124.5 397.56,-88.5 451.56,-88.5 451.56,-124.5"/>
<text xml:space="preserve" text-anchor="middle" x="424.56" y="-101.45" font-family="Times New Roman,serif" font-size="14.00">PHP</text>
</g>
<!-- OJSCocktail&#45;&gt;PHP -->
<g id="edge18" class="edge">
<title>OJSCocktail&#45;&gt;PHP</title>
<path fill="none" stroke="black" d="M354.97,-185.06C371.49,-179.79 389.54,-171.59 402.56,-159 409.16,-152.61 413.89,-143.91 417.23,-135.48"/>
<polygon fill="black" stroke="black" points="420.47,-136.81 420.36,-126.21 413.84,-134.56 420.47,-136.81"/>
<text xml:space="preserve" text-anchor="middle" x="458.51" y="-145.7" font-family="Times New Roman,serif" font-size="14.00">is_composed_of</text>
</g>
<!-- SQL -->
<g id="node14" class="node">
<title>SQL</title>
<polygon fill="goldenrod" stroke="goldenrod" points="566.56,-124.5 512.56,-124.5 512.56,-88.5 566.56,-88.5 566.56,-124.5"/>
<text xml:space="preserve" text-anchor="middle" x="539.56" y="-101.45" font-family="Times New Roman,serif" font-size="14.00">SQL</text>
</g>
<!-- OJSCocktail&#45;&gt;SQL -->
<g id="edge19" class="edge">
<title>OJSCocktail&#45;&gt;SQL</title>
<path fill="none" stroke="black" d="M355.16,-190.41C404.85,-185.52 483.29,-175.46 507.56,-159 516.32,-153.05 523.14,-143.82 528.19,-134.81"/>
<polygon fill="black" stroke="black" points="531.3,-136.41 532.64,-125.9 525.04,-133.28 531.3,-136.41"/>
<text xml:space="preserve" text-anchor="middle" x="568.01" y="-145.7" font-family="Times New Roman,serif" font-size="14.00">is_composed_of</text>
</g>
<!-- Bootstrap&#45;&gt;Library -->
<g id="edge1" class="edge">
<title>Bootstrap&#45;&gt;Library</title>
<path fill="none" stroke="black" stroke-dasharray="5,2" d="M58.4,-88.32C53.01,-83.19 47.88,-77.14 44.56,-70.5 41.02,-63.45 39.2,-55.18 38.34,-47.37"/>
<polygon fill="black" stroke="black" points="41.85,-47.35 37.76,-37.58 34.86,-47.77 41.85,-47.35"/>
<text xml:space="preserve" text-anchor="middle" x="52.06" y="-57.2" font-family="Times New Roman,serif" font-size="14.00">iof</text>
</g>
<!-- Bootstrap&#45;&gt;WebPageStyling -->
<g id="edge7" class="edge">
<title>Bootstrap&#45;&gt;WebPageStyling</title>
<path fill="none" stroke="black" d="M83.46,-88.07C85.43,-77.22 89.43,-63.56 97.56,-54 102.76,-47.88 109.29,-42.72 116.26,-38.4"/>
<polygon fill="black" stroke="black" points="117.58,-41.67 124.63,-33.76 114.19,-35.55 117.58,-41.67"/>
<text xml:space="preserve" text-anchor="middle" x="129.06" y="-57.2" font-family="Times New Roman,serif" font-size="14.00">is_used_for</text>
</g>
<!-- CSS&#45;&gt;Language -->
<g id="edge2" class="edge">
<title>CSS&#45;&gt;Language</title>
<path fill="none" stroke="black" stroke-dasharray="5,2" d="M223.95,-88.2C242.18,-74.73 267.61,-55.92 287.37,-41.32"/>
<polygon fill="black" stroke="black" points="289.38,-44.18 295.34,-35.42 285.22,-38.55 289.38,-44.18"/>
<text xml:space="preserve" text-anchor="middle" x="277.04" y="-57.2" font-family="Times New Roman,serif" font-size="14.00">iof</text>
</g>
<!-- CSS&#45;&gt;WebPageStyling -->
<g id="edge8" class="edge">
<title>CSS&#45;&gt;WebPageStyling</title>
<path fill="none" stroke="black" d="M180.11,-88.03C175.45,-82.9 171.12,-76.92 168.56,-70.5 165.73,-63.42 164.67,-55.33 164.52,-47.7"/>
<polygon fill="black" stroke="black" points="168.02,-47.93 164.86,-37.81 161.02,-47.69 168.02,-47.93"/>
<text xml:space="preserve" text-anchor="middle" x="200.06" y="-57.2" font-family="Times New Roman,serif" font-size="14.00">is_used_for</text>
</g>
<!-- HTML&#45;&gt;Language -->
<g id="edge3" class="edge">
<title>HTML&#45;&gt;Language</title>
<path fill="none" stroke="black" stroke-dasharray="5,2" d="M299.47,-88.05C293.66,-78.16 288.87,-65.51 292.56,-54 293.56,-50.87 294.96,-47.78 296.59,-44.8"/>
<polygon fill="black" stroke="black" points="299.44,-46.84 301.94,-36.55 293.56,-43.03 299.44,-46.84"/>
<text xml:space="preserve" text-anchor="middle" x="300.06" y="-57.2" font-family="Times New Roman,serif" font-size="14.00">iof</text>
</g>
<!-- HTML&#45;&gt;TBD -->
<g id="edge9" class="edge">
<title>HTML&#45;&gt;TBD</title>
<path fill="none" stroke="black" d="M328.77,-88.08C339.55,-77.23 354.46,-63.57 369.56,-54 384.27,-44.68 401.89,-36.89 417.18,-31.05"/>
<polygon fill="black" stroke="black" points="418.23,-34.4 426.41,-27.67 415.82,-27.83 418.23,-34.4"/>
<text xml:space="preserve" text-anchor="middle" x="401.06" y="-57.2" font-family="Times New Roman,serif" font-size="14.00">is_used_for</text>
</g>
<!-- MySQL -->
<g id="node12" class="node">
<title>MySQL</title>
<polygon fill="goldenrod" stroke="goldenrod" points="272.06,-478.5 211.06,-478.5 211.06,-442.5 272.06,-442.5 272.06,-478.5"/>
<text xml:space="preserve" text-anchor="middle" x="241.56" y="-455.45" font-family="Times New Roman,serif" font-size="14.00">MySQL</text>
</g>
<!-- MySQL&#45;&gt;Resource -->
<g id="edge4" class="edge">
<title>MySQL&#45;&gt;Resource</title>
<path fill="none" stroke="black" stroke-dasharray="5,2" d="M237.8,-442.41C235.24,-430.76 231.79,-415.05 228.82,-401.52"/>
<polygon fill="black" stroke="black" points="232.26,-400.84 226.69,-391.83 225.42,-402.35 232.26,-400.84"/>
<text xml:space="preserve" text-anchor="middle" x="241.26" y="-411.2" font-family="Times New Roman,serif" font-size="14.00">iof</text>
</g>
<!-- MySQL&#45;&gt;OJS -->
<g id="edge12" class="edge">
<title>MySQL&#45;&gt;OJS</title>
<path fill="none" stroke="black" d="M255.58,-442.41C265.73,-430.05 279.62,-413.13 291.15,-399.08"/>
<polygon fill="black" stroke="black" points="293.72,-401.47 297.35,-391.52 288.3,-397.03 293.72,-401.47"/>
<text xml:space="preserve" text-anchor="middle" x="306.29" y="-411.2" font-family="Times New Roman,serif" font-size="14.00">supports</text>
</g>
<!-- PHP&#45;&gt;Language -->
<g id="edge5" class="edge">
<title>PHP&#45;&gt;Language</title>
<path fill="none" stroke="black" stroke-dasharray="5,2" d="M397.24,-102.23C376.1,-98.27 347.64,-89.56 330.56,-70.5 324.87,-64.15 321.59,-55.67 319.73,-47.43"/>
<polygon fill="black" stroke="black" points="323.2,-47 318.17,-37.68 316.29,-48.1 323.2,-47"/>
<text xml:space="preserve" text-anchor="middle" x="338.06" y="-57.2" font-family="Times New Roman,serif" font-size="14.00">iof</text>
</g>
<!-- PHP&#45;&gt;TBD -->
<g id="edge10" class="edge">
<title>PHP&#45;&gt;TBD</title>
<path fill="none" stroke="black" d="M430.29,-88.41C434.26,-76.56 439.64,-60.52 444.22,-46.84"/>
<polygon fill="black" stroke="black" points="447.5,-48.08 447.36,-37.49 440.86,-45.86 447.5,-48.08"/>
<text xml:space="preserve" text-anchor="middle" x="473.15" y="-57.2" font-family="Times New Roman,serif" font-size="14.00">is_used_for</text>
</g>
<!-- SQL&#45;&gt;Language -->
<g id="edge6" class="edge">
<title>SQL&#45;&gt;Language</title>
<path fill="none" stroke="black" stroke-dasharray="5,2" d="M533.63,-88.48C528.72,-76.93 520.57,-62.31 508.56,-54 505.69,-52.02 426.61,-37.95 371.12,-28.27"/>
<polygon fill="black" stroke="black" points="371.96,-24.86 361.51,-26.6 370.76,-31.76 371.96,-24.86"/>
<text xml:space="preserve" text-anchor="middle" x="531.55" y="-57.2" font-family="Times New Roman,serif" font-size="14.00">iof</text>
</g>
<!-- SQL&#45;&gt;TBD -->
<g id="edge11" class="edge">
<title>SQL&#45;&gt;TBD</title>
<path fill="none" stroke="black" d="M552.24,-88.04C558.26,-77.44 562.74,-64.06 555.56,-54 541.66,-34.54 516.24,-25.78 494.25,-21.9"/>
<polygon fill="black" stroke="black" points="495.04,-18.48 484.64,-20.5 494.03,-25.4 495.04,-18.48"/>
<text xml:space="preserve" text-anchor="middle" x="590.75" y="-57.2" font-family="Times New Roman,serif" font-size="14.00">is_used_for</text>
</g>
</g>
</svg>
